<svg xmlns="http://www.w3.org/2000/svg" viewBox="0 0 52.94 41.6"><defs><style>.cls-1{fill:#fff;}</style></defs><title>logo_1</title><g id="Layer_2" data-name="Layer 2"><g id="Drawing"><path class="cls-1" d="M52.93,17.62c-.11-1-1-2.15-6.42-2.64A20.76,20.76,0,0,0,31.76.68a.81.81,0,0,0-.69.14.83.83,0,0,0-.31.64V23.64c-1.25.18-2.53.35-3.89.51a110.8,110.8,0,0,1-19,.86,19.4,19.4,0,0,1-.48-4.21c0-.13,0-.25,0-.38v-.05A19.22,19.22,0,0,1,26.56,1.6a.8.8,0,1,0,0-1.6A20.82,20.82,0,0,0,5.81,19.74C.42,21.54-.1,23,0,23.86S1,26,6.58,26.52a20.83,20.83,0,0,0,20,15.08.8.8,0,1,0,0-1.6A19.23,19.23,0,0,1,8.27,26.63l.37,0c1,.05,2.12.07,3.28.07a131.83,131.83,0,0,0,15.14-1c.24,0,1.65-.2,3.7-.5v14.9a.83.83,0,0,0,.31.64.78.78,0,0,0,.49.16.68.68,0,0,0,.2,0A20.77,20.77,0,0,0,47.32,21.7C50.72,20.55,53.12,19.18,52.93,17.62ZM1.6,23.69s.28-.89,4.19-2.25a21.81,21.81,0,0,0,.38,3.45C3.38,24.61,1.81,24.15,1.6,23.69ZM47.33,20a20.71,20.71,0,0,0-.41-3.36c3.89.41,4.41,1.16,4.42,1.16C51.25,18.29,49.89,19.09,47.33,20Z"/></g></g></svg>