<svg xmlns="http://www.w3.org/2000/svg" viewBox="0 0 1793.5 2674.27"><defs><style>.cls-1{fill:#fff;}</style></defs><title>vinyl-player_1</title><g id="Layer_2" data-name="Layer 2"><g id="Top"><path class="cls-1" d="M1793.35,2027.52c-1.95-48.56-44.75-63.85-70.35-73l-3.35-1.21c-14-5.06-30.22-19.64-42.05-30.79,9.33-12.16,10.27-22.85,2.8-31.8l-7.3-9.24a2.4,2.4,0,0,0-.45-.45c-14.26-11.08-40.59,3.63-80.56,45-2,2-3.86,4.11-5.73,6.14-10.46,11.37-19.78,21.5-40.43,26.76v-64a314.19,314.19,0,0,0,25.89-19.34c29.38-24.53,47.56-50.29,54.29-76.86l62.32-25.5a2.67,2.67,0,0,0,1.66-2.47v-22.3a2.86,2.86,0,0,0-.16-1h0v0h0l-.15-.33s0,0,0,0h0a2.59,2.59,0,0,0-1.33-1.19h0l0,0-77.93-29.14a158.31,158.31,0,0,0-11.18-15c18.6-27.12,25.4-50.53,25.4-119.16v-133c3.44-2.84,5.38-6,5.38-9.59v-67.9c0-7.57-8.84-14.09-25.6-18.9-12.34-94.12-99.91-149.41-110.9-156-1.69-9-7-13.11-11.68-13.11h0a6.92,6.92,0,0,0-5,2.05c-50.2-31-123.69-99.87-133.87-109.49-1-5.9-3.85-10.55-7.83-12.49-2.23-1.07-6.81-2.21-12.4,2.39l0,0C1242.07,994.2,1170.45,920.09,1125,862c-1.48-10.41-4.86-16.93-10.31-19.93-4.65-2.56-10.38-2.32-17.48.76q-19.85-21.69-37-42.42c36.25-78.64,51.93-171.43,47.63-280,37.73-152.75,16.51-269.14-64.88-355.78C995.15,48.05,909.67-.89,781.67,14.91,645.44-21.62,539,8.82,456.21,107.9c-131.4,58.77-222.88,153.55-271.95,281.72C67.59,502.74,15.87,632.46,30.53,775.21c-51.15,129.06-38,250.5,39.14,361,24.68,125.93,101,191.74,227,195.64q59.69,28,118.77,28c69.29,0,137.7-29,204.41-86.73,111-37.89,199.44-105.14,267.63-204a493.23,493.23,0,0,1,63.64,22.56,14.22,14.22,0,0,0,4.83,11.46c4,3.31,9.86,4,16.51,1.91l1.86-.58c75.4,28.11,156.49,64.34,241.21,107.77-.86,2.76-1.58,7.23,1.06,10.77,3.24,4.36,10,5.59,20.65,3.73,7.41,2.92,73.47,29.31,164.65,79.32-.19,2.81.05,7.76,3.51,11,3.24,3,8.24,3.6,14.9,1.81,5.46,1.73,40.77,13.55,59.53,36.38-12.83,4.57-19.58,10.41-19.58,17V1440c0,8.83,12,15.53,29.37,19.91-2.72,19.11-13.6,30.65-33.12,35.23-73.63,13.82-274.51-48.93-468.78-109.65l-12.43-3.88c-7-30.1-22.14-50.45-40-50.45H900.05c-12.74,0-24.06,10.32-32.07,27.12-15.21-1.68-114-11.47-145.23,15.32-6.21,5.31-9.49,11.79-9.75,19.35v1c0,26,0,40.25,36.13,54.25s86.59,17,111.78,14.65c5.3,20.2,14.34,35.56,25.38,42.6L879,1519.29c-181.76,2.48-351.66,28.65-481,74.33-66.31,23.42-118.41,50.71-154.83,81.12-27.23,22.72-44.84,46.51-52.63,71l-36.2,15-.09,0h0a2.68,2.68,0,0,0-1.56,2.49v22.3a2.68,2.68,0,0,0,1.73,2.5l35.19,13.32q8,28.36,33.44,55.31v221.36l-46,16.34-.1,0h0a2.61,2.61,0,0,0-1.26,1.05h0c0,.08,0,0,0,0a2.75,2.75,0,0,0-.23.49h0a2.53,2.53,0,0,0-.15.95v30.28l-54,21.79h-.07a2.69,2.69,0,0,0-1.61,2.51V2183l-58.71,24-.13.05s0,0,0,0a2.65,2.65,0,0,0-1.27,1.29s0,0,0,0h0v0a0,0,0,0,1,0,0h0s0,0,0,0l0,.06s0,0,0,0,0,0,0,0h0v0h0v0h0a2.38,2.38,0,0,0-.13.88v64a2.67,2.67,0,0,0,1.63,2.46l888.14,398a2.75,2.75,0,0,0,1,.22h0s.07,0,.11,0h.09a2.83,2.83,0,0,0,1.09-.28L1700,2298.66a2.68,2.68,0,0,0,1.53-2.42v-64a2.36,2.36,0,0,0,0-.6h0s0,0,0,0v0h0s0,0,0,0v0a2.66,2.66,0,0,0-1-1.51l-.12-.08-.07,0-47.3-28.81v-34a2.65,2.65,0,0,0,0-.56,0,0,0,0,0,0,0h0a1.74,1.74,0,0,0-.11-.39h0a2.64,2.64,0,0,0-1.24-1.4l-57.77-30.53v-18.67a2.69,2.69,0,0,0,0-.4h0a2.88,2.88,0,0,0-.09-.4,0,0,0,0,0,0,0,2.66,2.66,0,0,0-1.11-1.44l-46.57-29.78V2010c26.24-5.17,83.18-44.36,101.9-59.17,11.61,13.92,27.33,34.64,39.68,61.32,21.08,45.5,63.89,51.48,68.79,52,2.29.7,5.49-.09,9.56-2.39a69.08,69.08,0,0,0,14-11.07C1786,2044.56,1794.76,2033.63,1793.35,2027.52Zm-203.06-91.72c1.84-2,3.7-4,5.65-6,35.45-36.71,55-46.91,65.78-46.91a12.83,12.83,0,0,1,5.87,1.28c-.36,0-.75,0-1.11,0-15.29,0-38,15.79-69.34,48.26-2,2-3.84,4.08-5.7,6.09-13.11,14.25-24.43,26.56-58.78,29.65-36.38,3.28-59.38,13.53-72.37,32.26-4.29,6.18-7.78,13.28-11.47,20.81-5.92,12.07-12,24.56-21.78,33.18-6.17,5.46-16.56,13.65-27.56,22.32-18.07,14.23-38.54,30.35-49.08,41.19-8.53,8.77-13.59,19.33-13.45,27.91-3.46-7,1-19.39,10.84-29.46,10.35-10.65,30.79-26.74,48.82-41,11.13-8.77,21.64-17,28-22.65,10.59-9.37,17-22.41,23.17-35,3.62-7.38,7-14.35,11.11-20.22,12.1-17.43,34-27,68.88-30.17C1564.32,1964,1576.93,1950.31,1590.29,1935.8Zm-346.9,125.67c-5.22-3.81-7.86-8-7.86-12.54a14,14,0,0,1,14.21-13.82,21,21,0,0,1,12,4.58l88.74,66.63c-2.45,2.23-4.65,4.34-6.53,6.27a53.68,53.68,0,0,0-10.62,15.27Zm12.42,15.8a30,30,0,0,1-6.07.61c-16.38,0-29.71-13-29.71-29s13.33-29,29.71-29c15.44,0,28.17,11.54,29.58,26.23L1265,2035.48a26.35,26.35,0,0,0-15.3-5.72,19.39,19.39,0,0,0-19.56,19.17c0,6.31,3.39,12,10,16.85Zm284.78-117.13a130.68,130.68,0,0,1-13.34,1.85c-36.59,3.3-59.71,13.61-72.78,32.44-4.31,6.21-7.82,13.35-11.53,20.92-6,12.14-12.11,24.7-21.91,33.38-6.2,5.49-16.65,13.73-27.72,22.44-13.23,10.43-27.75,21.87-38.76,31.52l-69.76-52.37c0-.3,0-.51,0-.8v-.59c0-18.92-15.72-34.3-35-34.3s-35,15.38-35,34.3,15.72,34.29,35,34.29a35.58,35.58,0,0,0,11.54-1.91l70.18,51.79c-1.71,6.24-1.32,12,1.47,16.41a2.45,2.45,0,0,0,.52.59l7.37,6.34a14.83,14.83,0,0,0,2.22,2c15.11,11.31,37.49-1.2,82.56-46.09l7.89-7.8c19.79-19.52,42.22-41.63,48.58-56.64,13.76-32.5,39.21-35.65,58.52-37.29v97l-606.37,300.1V2127.4L1193,2010.56c82.57-12.58,158.48-30.71,224-53.84,49.25-17.39,90.64-36.91,123.61-58.27ZM228.35,1862.22q6.85,6.75,14.79,13.38c36.42,30.41,88.52,57.7,154.83,81.12,76.14,26.88,166.3,47,264.65,59.52l266.26,111.21v280.47L228.35,2090.49Zm452.93,156.3q23.07,2.67,46.67,4.8l201.43,83.31-.4,15.14Zm117.13,9.85,130.07,53.05.79,19.45L744,2024.7Q770.91,2026.89,798.41,2028.37Zm16.17.79q45.85,2.07,92.9,2.09c46.77,0,92.87-1.57,137.81-4.63L931,2076.68Zm246.74-3.7q27.89-2.13,55.12-5l-181.83,80.46-.79-19.58Zm115.86-12.57-242.86,108.7.4-15,196.78-87.86Q1154.65,2016.11,1177.18,2012.89ZM1684.74,1769l-57.64,25.5a95.57,95.57,0,0,0,2-17.72l55.68-24.39Zm-4.69-20.48L1629,1770.88q-1.08-23.78-14.06-46.73Zm-60.75-165.9c0,66-6.36,89.2-23.69,115a215.06,215.06,0,0,0-17.1-17c14.34-24.68,17.85-50.42,17.85-80.93V1487.06a128.7,128.7,0,0,0,4.05-27.07,83,83,0,0,0,18.89-6.85ZM1555.89,1549q24-19.93,35.13-46.23v96.87c0,29.16-3.28,53.8-16.64,77.33-.84-.73-1.69-1.46-2.56-2.18q-10.08-8.43-21.76-16.51a127.06,127.06,0,0,0,5.83-35.16ZM955,936.73c-16.45-28.1-66.59-47.33-79.6-51.93,7.89-14.8,44.4-86,60.81-167.08,22.1-109.17,82.65-179.87,166.38-194.5C1109.11,702.06,1060.82,837.39,955,936.73Zm148-419c-70.83,11.86-125.61,62.37-155.65,141.56C875.37,487.19,906.78,322.62,1040.68,170,1119.12,254.8,1139.48,368.6,1102.94,517.74ZM783.71,20c124.15-14.93,207.18,32.7,253.82,145.49C900.05,321.63,868.8,490.22,944.61,666.65q-5.26,14.91-9.37,31.12c-77.82-83.33-130.29-180.95-156-290.24C752.44,293.47,753.94,163.1,783.71,20Zm-5.36-.49C719.69,302.22,772,532.48,933.73,704c-1,4.17-1.92,8.41-2.79,12.69-3,14.62-6.56,28.9-10.55,42.59C688.26,595.16,533.66,377,460.8,110.72,541.64,14.36,645.55-15.48,778.35,19.55ZM456.11,113.8C529.64,381.1,685.3,600.06,918.79,764.65a692.84,692.84,0,0,1-34.54,90.17C781.64,772.57,654.64,694.05,531.79,618.09,413.88,545.18,292,469.81,189.75,390.24,238.12,264.82,327.72,171.85,456.11,113.8ZM186.74,394.67c102.4,79.67,224.31,155.05,342.24,228C652.1,698.76,779.38,777.46,881.91,859.8c-7.34,15.48-12.45,24.7-12.72,25.18s-3.45,5.32-22.66,23.26C631.39,814.56,405.16,767.36,172.2,767.36q-67.9,0-136.55,5.35C21.88,633,72.71,505.78,186.74,394.67ZM35.12,778.11c279.83-22,551.34,23.12,807.13,134.09C830.5,923,813.69,937.91,789.7,958.27c-268.09-41.21-502.62,15.41-716.89,173C-1.94,1023.17-14.61,904.36,35.12,778.11Zm260.71,548.33c-123.87-4.13-196.08-66.36-220.7-190.2C287.2,979.92,519.25,923.18,784.29,962.86c-13,11-27.91,23.41-45.11,37.55C582.35,998.56,437.13,1105.3,295.83,1326.44Zm320-56.91c-102,88-207.81,107.71-314.64,58.49,138.07-215.6,279.37-321.13,431.69-322.28C621.4,1102.09,616,1254.16,615.79,1269.53Zm5.41-2.54c.81-25.2,10.31-171.19,120.61-261.83,102-83.85,125.53-109.26,130.69-115.7,10.58,3.72,64.25,23.75,78.8,51.67C879.07,1108.25,771.05,1214.89,621.2,1267Zm269.43-202.6q36.87-54.53,65.85-121.76c42.89-39.78,76.56-85.27,101.2-137q23.64,28.37,52.08,58.45a2.64,2.64,0,0,0,.56.45c16.12,127.83-76.2,204.77-124.12,222.16-16.92,6.13-21.55,5.29-22.34,5.07a2.6,2.6,0,0,0-.7-.49l-2.52-1.19Q929.59,1075.59,890.63,1064.39Zm83.28,34.53a2.69,2.69,0,0,0-.83.27c-.74.23-1.49.47-2.24.69-4.88,1.53-9,1.2-11.53-.91a8.2,8.2,0,0,1-2.69-4.84l1.76.82,2,.94c3.09,2.78,12.37,1.38,27.65-4.16C1020.3,1080,1136.44,1006.21,1115,859c-.33-2.27-1.84-5.08-4.38-5.88a4.81,4.81,0,0,0-3.55.3c-2-2.14-4-4.29-6-6.41,4.64-1.72,8.26-1.8,11-.28,3.92,2.16,6.5,7.74,7.67,16.62,0,0,0,.08,0,.12C1132.54,953.72,1092.27,1061.05,973.91,1098.92Zm8.43,2.81c112.09-39.29,152.76-141,143.89-229.59,47.61,59.52,120.69,134.3,202.07,206.67a2.64,2.64,0,0,0,1.7.67,19.18,19.18,0,0,1,0,5.06c-11.38,101-75.25,124.63-94.55,129.46-1.37.34-2.55.61-3.59.81a2.64,2.64,0,0,0-.78-.61l-4.72-2.45a2.73,2.73,0,0,0-.94-.49l-4.84-2.49a2.74,2.74,0,0,0-.46-.29,2.53,2.53,0,0,0-.49-.2C1136.39,1165.56,1056.68,1129.76,982.34,1101.73ZM1237,1221.29h-.09c-11.44,2.12-15,0-16.1-1.53s-.9-3.47-.51-5.1l.54.28a4.16,4.16,0,0,0,.28,3.47c1.66,2.89,6.16,3.1,15.55.76,20.15-5,86.8-29.63,98.57-134,.67-6-.22-9.8-2.71-11.78a6.08,6.08,0,0,0-3.74-1.24l-2.13-1.9c2.28-1.67,4.32-2.09,6.08-1.23,2.16,1,3.85,3.87,4.67,7.46a2.69,2.69,0,0,0,.45,2.79,22.74,22.74,0,0,1,.11,2.76C1331.27,1195.08,1259.08,1217.2,1237,1221.29Zm168.33,80.54c-78.21-42.95-138.19-68.66-159-77.21,28.86-7.84,89.9-36.68,96.84-140.37,18.93,17.7,86,79.21,132.36,107.41,10.25,35.2,3,65.21-21.54,89.23a125.76,125.76,0,0,1-40,25.72c-2.49-1.39-5-2.75-7.41-4.1A2.7,2.7,0,0,0,1405.36,1301.83Zm14.22,11.58-.07,0c-3.51,1-8.16,1.77-10.51-.38a6.58,6.58,0,0,1-1.78-4.09l5.25,2.91a2.62,2.62,0,0,0,2.17.19c.93-.32,92.18-32.79,66-122.14.3-.43,1.17-.44,1.22-.46,1.8,0,5.5,2,6.6,9.8C1500.88,1286.94,1428.12,1310.92,1419.58,1313.41Zm8.93,2.52a113.16,113.16,0,0,0,40.72-27.79c20.29-22.08,28.75-50.34,25.19-84.08,21,13.45,106.11,73.93,106.11,171.34a2.68,2.68,0,0,0,.1.76c-9.24,2.64-27.53,5.3-53.43,5.3-23.9,0-41.32-2.27-51.13-4.56C1489.81,1341.78,1446.3,1322.45,1428.51,1315.93Zm61.76,59.31c-1.88-.67-3-1.3-3.31-1.81,0,0,.35-.64,2.33-1.59C1489.66,1373,1490,1374.1,1490.27,1375.24Zm-7.11-15.61a52.44,52.44,0,0,1,4.14,7.24c-2.51,1.15-5.63,3.16-5.63,6.31,0,13.46,62.86,13.62,65.53,13.62s65.54-.16,65.54-13.62c0-3.87-3.73-5.94-7.13-7.2q-.19-3.52-.53-7c14.37,4.46,19.6,9.63,19.6,13.14,0,9.73-34,20.61-79.56,20.61s-79.57-10.88-79.57-20.61C1465.55,1368,1472.12,1363.33,1483.16,1359.63Zm122.67,12.27a15.54,15.54,0,0,1,1.6,1.06,4,4,0,0,1-1.57,1.25C1605.86,1373.44,1605.85,1372.66,1605.83,1371.9ZM1465.55,1440v-58.34c12.89,10.71,47,16.39,79.57,16.39s66.67-5.68,79.56-16.39V1440c0,1.92-1.35,3.89-3.83,5.81a2.52,2.52,0,0,0-.87.65c-10.82,7.52-39.34,14.14-74.86,14.14C1499.57,1460.62,1465.55,1449.75,1465.55,1440Zm-479.46-49.41c194.89,60.91,396.4,123.9,471.47,109.77,21.58-5.05,34.09-18.25,37.23-39.24,29.6,6.33,70.49,6.36,100.21.09-2.48,44.21-26.35,78.7-70.75,102.44-58.39,23.34-129.66,12.1-232.93-15.2l-314.2-98.57a179,179,0,0,0,2.38-29.48,175.7,175.7,0,0,0-3-32.8Zm-10,64.58,313.71,98.41c104.47,27.62,176.64,38.94,236.66,14.91a179.91,179.91,0,0,0,24-15.3v69.86a121.8,121.8,0,0,1-5.06,32c-33.74-22.61-76.8-43.23-128.51-61.49-134.53-47.5-312.86-73.9-502.78-74.51l5.11-9.45h15.9C953.89,1509.66,969.53,1487.49,976.13,1455.19Zm-2-34.77c0,45.48-17.83,83.9-38.95,83.9s-38.94-38.42-38.94-83.9,17.83-83.9,38.94-83.9S974.16,1375,974.16,1420.42Zm-163.07-52c-5.84-.35-12-.12-13.34,4-1.45,4.54,4.94,9.37,9.2,12,18.5,8.35,42.35,7.38,51.16,6.66a178.68,178.68,0,0,0-2.35,29.25,172.46,172.46,0,0,0,3.88,37.16c-24.9,2.15-73.7-.85-108.58-14.37-32.73-12.69-32.73-24.15-32.72-49.28v-.86c.21-6,2.79-11,7.89-15.4,16-13.69,52.43-17.07,84.52-17.07,24.64,0,46.71,2,55,2.84a126.11,126.11,0,0,0-6.6,22.27c-6.74.63-31.6,2.22-49.65-5.89-2.81-1.78-5.65-4.28-6.41-5.58.77-.29,2.81-.73,7.73-.46a2.62,2.62,0,0,0,2.82-2.51A2.68,2.68,0,0,0,811.09,1368.45Zm50,52c0-45.47,17.83-83.9,38.94-83.9h19.77c-17,12.35-28.89,44.82-28.89,83.9s11.86,71.56,28.89,83.9H900.05C878.94,1504.32,861.11,1465.9,861.11,1420.42ZM891,1507.89a24.15,24.15,0,0,0,9,1.77h13.19l-23.44,43.39a2.62,2.62,0,0,0-.32,1.38,34.44,34.44,0,0,1-10-3.07,34.89,34.89,0,0,1-8.71-5.43,2.56,2.56,0,0,0,.78-.91l.45-.86a2.61,2.61,0,0,0,.48-.92Zm-25.85,55.64a48.44,48.44,0,0,0,7.18,4,49.76,49.76,0,0,0,6.46,2.43l-20.35,24.4Zm9.41-.81a33.85,33.85,0,0,1-9-5.68,2.68,2.68,0,0,0-.44-.45,5.29,5.29,0,0,1-.69-.89l2.57-6a40.14,40.14,0,0,0,10.21,6.46c1,.46,6.85,3.06,11.83,3.52l-2.61,6.06C885.11,1566.06,880.61,1565.47,874.59,1562.72Zm2.31-39.4-8.69,16.58a4.77,4.77,0,0,0-3.9,2.7l-.06.14L859.41,1554c-.76,1.67-.36,3.51,1.2,5.49l-9.68,44.46a2.68,2.68,0,0,0,1.44,3,2.74,2.74,0,0,0,1.17.27,2.66,2.66,0,0,0,2.06-1l29.23-35c3.28.19,5.41-.72,6.32-2.72L896,1557.1a4.46,4.46,0,0,0-.23-3.95l16.24-30c393.59.86,713,113.6,713,252.06,0,139-321.92,252.08-717.61,252.08s-717.61-113.08-717.61-252.08C189.87,1639.77,495.34,1529,876.9,1523.32Zm-688.24,229a95.34,95.34,0,0,0-2.75,20.36l-23.33-9.52ZM158,1783.79v-16.66l27.93,11.39a95.19,95.19,0,0,0,2.32,17.71ZM180.54,2101,938,2445.53v38.16L180.54,2139.18Zm-55.7,54.61L942,2523.82v42.28L124.84,2197.91ZM947.3,2667.58,64.46,2271.79v-58.31L947.3,2609.27Zm748.89-373L952.65,2667.4v-58.2l743.54-372.86Zm-43.26-79.5v-7.75l40.29,24.55-743.3,372.74L68.76,2209.5l50.74-20.74v10.92a2.68,2.68,0,0,0,1.64,2.46l822.41,370.41a2.78,2.78,0,0,0,2.26,0l705.58-355.05A2.67,2.67,0,0,0,1652.93,2215Zm-5.34-1.7L947.3,2565.91v-42.17l700.29-352.57Zm-53.85-54v-19.19l50.53,26.69-699.69,352.3L129.19,2151.66l46-18.56V2141a2.68,2.68,0,0,0,1.63,2.47L939.6,2490.16a2.56,2.56,0,0,0,1,.23h.18a2.66,2.66,0,0,0,1.1-.27l650.32-328.38A2.67,2.67,0,0,0,1593.74,2159.32Zm-5.35-1.7-645,325.91v-38.07l645-325.9Zm-2.86-42.62L940.64,2440.84,185.25,2097.21,223,2083.79v8.48a2.66,2.66,0,0,0,1.64,2.46l705.82,319.64a2.79,2.79,0,0,0,2.23,0l611.66-302.51a2.67,2.67,0,0,0,1.57-2.43v-19.73ZM1543,2005.06l-.21,0-.74.07c-19.69,1.64-49.45,4.12-64.94,40.7-6,14-28.93,36.7-47.41,54.91l-7.9,7.82c-41.61,41.44-63.52,54.65-75.6,45.61a9.71,9.71,0,0,1-1.41-1.3l-.17-.19a10.45,10.45,0,0,1-2.32-6.09c-.57-7.2,4.1-17,11.89-25,10.3-10.58,30.62-26.59,48.55-40.72,11.07-8.72,21.52-16.95,27.8-22.51,10.53-9.33,16.89-22.29,23-34.83,3.6-7.34,7-14.27,11.05-20.11,12-17.33,33.78-26.86,68.47-30,36.4-3.28,48.95-16.91,62.23-31.35,1.83-2,3.68-4,5.61-6,29.89-30.95,51.92-46.63,65.5-46.63h.07a11.47,11.47,0,0,1,8.76,3.59c.35.36.68.73,1,1.1l.35.44.11.13c5.2,6.73,4.22,14.5-3,24.14-8.66-8.22-12.66-11.89-15.45-12.46-11.77-2.7-20.55,3-24.82,9.12-3.65,5.27-4.33,11.31-1.77,15.49.75,1.85,3,4.49,8,10.22,1.43,1.66,3,3.5,4.74,5.51C1622.69,1964,1565.42,2002.24,1543,2005.06ZM1753,2058.24c-11.45-2.19-43.54-11.5-60.61-48.34-15.93-34.4-37.24-59-48.69-72.18-3.27-3.77-6.65-7.66-7.05-8.69a2.55,2.55,0,0,0-.32-.69c-1.54-2.33-.93-6.25,1.52-9.79a17.65,17.65,0,0,1,14.59-7.5,21.35,21.35,0,0,1,4.69.55c1.71.49,7.88,6.33,13.33,11.5,13,12.36,30.89,29.29,47.4,35.25l3.37,1.21c25.14,9,62.73,22.4,66.56,64.31-6.28.52-15.62,8.15-21.12,13.65C1765.08,2039.08,1753.89,2050.51,1753,2058.24Zm23.07-11.32c-8.94,8.95-15.79,12.1-17.79,12.16,0-2.21,3.74-9.35,12.16-17.78s15.57-12.15,17.79-12.17C1788.14,2031.13,1785,2038,1776,2046.92ZM928.66,1495.7a2.33,2.33,0,0,0,.64.23,18.37,18.37,0,0,0,5.91,1c20.13,0,35.89-33.6,35.89-76.5s-15.76-76.49-35.89-76.49a18.41,18.41,0,0,0-6,1,3.27,3.27,0,0,0-.55.2c-16.91,6.36-29.38,37.15-29.38,75.29S911.77,1489.31,928.66,1495.7Zm1.7-145.49c16.34.62,30.06,32.52,30.06,70.21s-13.71,69.58-30,70.22c-14.36-5.59-25.71-35.48-25.71-70.22S916,1355.81,930.36,1350.21Zm20.66,83c3.82,0,6.5-4.63,6.5-11.25s-2.68-11.24-6.5-11.24-6.51,4.62-6.51,11.24S947.18,1433.22,951,1433.22Zm0-16.76a13.67,13.67,0,0,1,0,11,13.56,13.56,0,0,1,0-11Z"/></g></g></svg>